<svg width="135" height="132" viewBox="0 0 135 132" fill="none" xmlns="http://www.w3.org/2000/svg">
    <rect width="135" height="132" fill="#F5F5F5" />
    <g id="Main Page (PC)" clip-path="url(#clip0_0_1)">
        <rect width="1280" height="1440" transform="translate(-1145 4.57764e-05)" fill="#222222" />
        <g id="Btn LogIn">
            <path id="Vector 1"
                d="M6 19.5L0 0H135V132C127.5 132 114 129 117 103.5C117.723 97.3577 118.5 84.75 109.5 73.5C103.5 66 81 69 72 73.5C68.9642 75.0179 27 87 15 51L6 19.5Z"
                fill="#AE00EB" />
            <path id="Prihl&#195;&#161;si&#197;&#165; sa"
                d="M38.552 30.384C38.552 31.0347 38.4027 31.632 38.104 32.176C37.8053 32.7093 37.3467 33.1413 36.728 33.472C36.1093 33.8027 35.3413 33.968 34.424 33.968H32.728V38H29.992V26.768H34.424C35.32 26.768 36.0773 26.9227 36.696 27.232C37.3147 27.5413 37.7787 27.968 38.088 28.512C38.3973 29.056 38.552 29.68 38.552 30.384ZM34.216 31.792C34.7387 31.792 35.128 31.6693 35.384 31.424C35.64 31.1787 35.768 30.832 35.768 30.384C35.768 29.936 35.64 29.5893 35.384 29.344C35.128 29.0987 34.7387 28.976 34.216 28.976H32.728V31.792H34.216ZM42.7124 30.56C43.0324 30.0693 43.4324 29.6853 43.9124 29.408C44.3924 29.12 44.9257 28.976 45.5124 28.976V31.872H44.7604C44.0777 31.872 43.5657 32.0213 43.2244 32.32C42.883 32.608 42.7124 33.12 42.7124 33.856V38H39.9764V29.072H42.7124V30.56ZM48.1961 28.144C47.7161 28.144 47.3215 28.0053 47.0121 27.728C46.7135 27.44 46.5641 27.088 46.5641 26.672C46.5641 26.2453 46.7135 25.8933 47.0121 25.616C47.3215 25.328 47.7161 25.184 48.1961 25.184C48.6655 25.184 49.0495 25.328 49.3481 25.616C49.6575 25.8933 49.8121 26.2453 49.8121 26.672C49.8121 27.088 49.6575 27.44 49.3481 27.728C49.0495 28.0053 48.6655 28.144 48.1961 28.144ZM49.5561 29.072V38H46.8201V29.072H49.5561ZM57.0269 28.976C58.0509 28.976 58.8722 29.3173 59.4909 30C60.1095 30.672 60.4189 31.6 60.4189 32.784V38H57.6989V33.152C57.6989 32.5547 57.5442 32.0907 57.2349 31.76C56.9255 31.4293 56.5095 31.264 55.9869 31.264C55.4642 31.264 55.0482 31.4293 54.7389 31.76C54.4295 32.0907 54.2749 32.5547 54.2749 33.152V38H51.5389V26.16H54.2749V30.272C54.5522 29.8773 54.9309 29.5627 55.4109 29.328C55.8909 29.0933 56.4295 28.976 57.0269 28.976ZM65.0561 26.16V38H62.3201V26.16H65.0561ZM66.4949 33.52C66.4949 32.6027 66.6655 31.7973 67.0069 31.104C67.3589 30.4107 67.8335 29.8773 68.4309 29.504C69.0282 29.1307 69.6949 28.944 70.4309 28.944C71.0602 28.944 71.6095 29.072 72.0789 29.328C72.5589 29.584 72.9269 29.92 73.1829 30.336V29.072H75.9189V38H73.1829V36.736C72.9162 37.152 72.5429 37.488 72.0629 37.744C71.5935 38 71.0442 38.128 70.4149 38.128C69.6895 38.128 69.0282 37.9413 68.4309 37.568C67.8335 37.184 67.3589 36.6453 67.0069 35.952C66.6655 35.248 66.4949 34.4373 66.4949 33.52ZM73.1829 33.536C73.1829 32.8533 72.9909 32.3147 72.6069 31.92C72.2335 31.5253 71.7749 31.328 71.2309 31.328C70.6869 31.328 70.2229 31.5253 69.8389 31.92C69.4655 32.304 69.2789 32.8373 69.2789 33.52C69.2789 34.2027 69.4655 34.7467 69.8389 35.152C70.2229 35.5467 70.6869 35.744 71.2309 35.744C71.7749 35.744 72.2335 35.5467 72.6069 35.152C72.9909 34.7573 73.1829 34.2187 73.1829 33.536ZM73.3909 26.848L69.5349 28.464V26.576L73.3909 24.72V26.848ZM81.5303 38.128C80.7516 38.128 80.0583 37.9947 79.4503 37.728C78.8423 37.4613 78.3623 37.0987 78.0103 36.64C77.6583 36.1707 77.4609 35.648 77.4183 35.072H80.1223C80.1543 35.3813 80.2983 35.632 80.5543 35.824C80.8103 36.016 81.1249 36.112 81.4983 36.112C81.8396 36.112 82.1009 36.048 82.2823 35.92C82.4743 35.7813 82.5703 35.6053 82.5703 35.392C82.5703 35.136 82.4369 34.9493 82.1703 34.832C81.9036 34.704 81.4716 34.5653 80.8743 34.416C80.2343 34.2667 79.7009 34.112 79.2743 33.952C78.8476 33.7813 78.4796 33.52 78.1703 33.168C77.8609 32.8053 77.7063 32.32 77.7063 31.712C77.7063 31.2 77.8449 30.736 78.1223 30.32C78.4103 29.8933 78.8263 29.5573 79.3703 29.312C79.9249 29.0667 80.5809 28.944 81.3383 28.944C82.4583 28.944 83.3383 29.2213 83.9783 29.776C84.6289 30.3307 85.0023 31.0667 85.0983 31.984H82.5703C82.5276 31.6747 82.3889 31.4293 82.1543 31.248C81.9303 31.0667 81.6316 30.976 81.2583 30.976C80.9383 30.976 80.6929 31.04 80.5223 31.168C80.3516 31.2853 80.2663 31.4507 80.2663 31.664C80.2663 31.92 80.3996 32.112 80.6663 32.24C80.9436 32.368 81.3703 32.496 81.9463 32.624C82.6076 32.7947 83.1463 32.9653 83.5623 33.136C83.9783 33.296 84.3409 33.5627 84.6503 33.936C84.9703 34.2987 85.1356 34.7893 85.1463 35.408C85.1463 35.9307 84.9969 36.4 84.6983 36.816C84.4103 37.2213 83.9889 37.5413 83.4343 37.776C82.8903 38.0107 82.2556 38.128 81.5303 38.128ZM88.1961 28.144C87.7161 28.144 87.3215 28.0053 87.0121 27.728C86.7135 27.44 86.5641 27.088 86.5641 26.672C86.5641 26.2453 86.7135 25.8933 87.0121 25.616C87.3215 25.328 87.7161 25.184 88.1961 25.184C88.6655 25.184 89.0495 25.328 89.3481 25.616C89.6575 25.8933 89.8121 26.2453 89.8121 26.672C89.8121 27.088 89.6575 27.44 89.3481 27.728C89.0495 28.0053 88.6655 28.144 88.1961 28.144ZM89.5561 29.072V38H86.8201V29.072H89.5561ZM97.6189 24.56C97.7362 24.9013 97.8162 25.2053 97.8589 25.472C97.9122 25.728 97.9389 26 97.9389 26.288C97.9389 26.9493 97.7469 27.4667 97.3629 27.84C96.9895 28.2133 96.4349 28.4 95.6989 28.4V27.36C96.2535 27.36 96.5309 27.168 96.5309 26.784V26.528H95.5229V24.56H97.6189ZM94.7069 34.928C94.7069 35.1947 94.7709 35.3867 94.8989 35.504C95.0269 35.6213 95.2402 35.68 95.5389 35.68H96.5149V38H95.1229C94.1309 38 93.3575 37.76 92.8029 37.28C92.2482 36.7893 91.9709 35.9947 91.9709 34.896V31.344H90.8829V29.072H91.9709V26.896H94.7069V29.072H96.4989V31.344H94.7069V34.928ZM105.093 38.128C104.314 38.128 103.621 37.9947 103.013 37.728C102.405 37.4613 101.925 37.0987 101.573 36.64C101.221 36.1707 101.023 35.648 100.981 35.072H103.685C103.717 35.3813 103.861 35.632 104.117 35.824C104.373 36.016 104.687 36.112 105.061 36.112C105.402 36.112 105.663 36.048 105.845 35.92C106.037 35.7813 106.133 35.6053 106.133 35.392C106.133 35.136 105.999 34.9493 105.733 34.832C105.466 34.704 105.034 34.5653 104.437 34.416C103.797 34.2667 103.263 34.112 102.837 33.952C102.41 33.7813 102.042 33.52 101.733 33.168C101.423 32.8053 101.269 32.32 101.269 31.712C101.269 31.2 101.407 30.736 101.685 30.32C101.973 29.8933 102.389 29.5573 102.933 29.312C103.487 29.0667 104.143 28.944 104.901 28.944C106.021 28.944 106.901 29.2213 107.541 29.776C108.191 30.3307 108.565 31.0667 108.661 31.984H106.133C106.09 31.6747 105.951 31.4293 105.717 31.248C105.493 31.0667 105.194 30.976 104.821 30.976C104.501 30.976 104.255 31.04 104.085 31.168C103.914 31.2853 103.829 31.4507 103.829 31.664C103.829 31.92 103.962 32.112 104.229 32.24C104.506 32.368 104.933 32.496 105.509 32.624C106.17 32.7947 106.709 32.9653 107.125 33.136C107.541 33.296 107.903 33.5627 108.213 33.936C108.533 34.2987 108.698 34.7893 108.709 35.408C108.709 35.9307 108.559 36.4 108.261 36.816C107.973 37.2213 107.551 37.5413 106.997 37.776C106.453 38.0107 105.818 38.128 105.093 38.128ZM109.839 33.52C109.839 32.6027 110.009 31.7973 110.351 31.104C110.703 30.4107 111.177 29.8773 111.775 29.504C112.372 29.1307 113.039 28.944 113.775 28.944C114.404 28.944 114.953 29.072 115.423 29.328C115.903 29.584 116.271 29.92 116.527 30.336V29.072H119.263V38H116.527V36.736C116.26 37.152 115.887 37.488 115.407 37.744C114.937 38 114.388 38.128 113.759 38.128C113.033 38.128 112.372 37.9413 111.775 37.568C111.177 37.184 110.703 36.6453 110.351 35.952C110.009 35.248 109.839 34.4373 109.839 33.52ZM116.527 33.536C116.527 32.8533 116.335 32.3147 115.951 31.92C115.577 31.5253 115.119 31.328 114.575 31.328C114.031 31.328 113.567 31.5253 113.183 31.92C112.809 32.304 112.623 32.8373 112.623 33.52C112.623 34.2027 112.809 34.7467 113.183 35.152C113.567 35.5467 114.031 35.744 114.575 35.744C115.119 35.744 115.577 35.5467 115.951 35.152C116.335 34.7573 116.527 34.2187 116.527 33.536Z"
                fill="#222222" />
        </g>
    </g>
    <defs>
        <clipPath id="clip0_0_1">
            <rect width="1280" height="1440" fill="white" transform="translate(-1145 4.57764e-05)" />
        </clipPath>
    </defs>
</svg>