<svg width="1280" height="667" viewBox="0 0 1280 667" fill="none" xmlns="http://www.w3.org/2000/svg">
    <path
        d="M161.607 383.008C167.801 390.493 166.531 401.659 165.521 405.798L168.952 403.557L172.144 399.486C176.692 391.547 164.241 381.786 164.559 377.105C164.984 370.864 175.173 365.704 177.327 360.819C177.865 359.597 180.279 354.916 177.724 349.626C175.17 344.336 180.676 343.723 188.18 351.248C189.496 352.568 182.831 338.838 174.93 342.505C168.609 345.439 165.913 351.871 165.834 358.383C167.35 355.736 170.541 345.967 174.053 350.035C177.565 354.103 171.288 362.111 168.388 363.672C163.547 366.999 155.413 375.523 161.607 383.008Z"
        fill="#6B1689" />
    <path
        d="M142.315 372.538C160.157 392.234 158.996 420.825 157.14 431.381L165.768 425.883L173.402 415.662C183.86 395.608 149.035 369.595 148.956 357.594C148.851 341.593 174.761 329.1 179.494 316.711C180.677 313.614 186.134 301.767 178.343 287.986C170.552 274.205 184.984 273.042 206.292 292.939C210.03 296.43 189.716 260.654 169.558 269.482C153.432 276.544 147.57 292.866 148.642 309.59C152.128 302.905 158.64 278.046 168.721 288.761C178.803 299.476 163.789 319.577 156.433 323.371C144.293 331.553 124.474 352.842 142.315 372.538Z"
        fill="#B40AF0" />
    <path
        d="M44.7925 324.081C-60.5738 222.552 -30.5385 136.068 -137.18 113L-197 536.16L1068.56 715.067L1092.38 546.586C1092.38 546.586 1097.39 511.161 1050.49 504.532C966.377 492.641 953.085 526.631 786.251 535.282C619.416 543.933 644.441 469.292 578.482 399.526C512.523 329.759 399.062 390.627 338.43 403.871C299.827 412.303 150.159 425.61 44.7925 324.081Z"
        fill="#B40AEF" fill-opacity="0.5" />
    <path
        d="M209.867 423.558C91.2472 337.65 108.893 247.681 0 239.755L1.58233e-05 667.755L1279 667.755L1279 497.347C1279 497.347 1279 461.517 1231.61 461.517C1146.6 461.517 1138.19 497.085 974.099 529.051C810.009 561.017 824.349 483.493 749.223 423.557C674.098 363.622 570.204 439.884 511.984 461.517C474.916 475.29 328.487 509.465 209.867 423.558Z"
        fill="#B40AEF" />
    <g opacity="0.2">
        <path
            d="M1134.39 270.008C1128.2 277.493 1129.47 288.659 1130.48 292.798L1127.05 290.557L1123.86 286.486C1119.31 278.547 1131.76 268.786 1131.44 264.105C1131.02 257.864 1120.83 252.704 1118.67 247.819C1118.13 246.597 1115.72 241.916 1118.28 236.626C1120.83 231.336 1115.32 230.723 1107.82 238.248C1106.5 239.568 1113.17 225.838 1121.07 229.505C1127.39 232.439 1130.09 238.871 1130.17 245.383C1128.65 242.736 1125.46 232.967 1121.95 237.035C1118.43 241.103 1124.71 249.111 1127.61 250.672C1132.45 253.999 1140.59 262.523 1134.39 270.008Z"
            fill="#6B1689" />
        <path
            d="M1153.68 259.538C1135.84 279.234 1137 307.825 1138.86 318.381L1130.23 312.883L1122.6 302.662C1112.14 282.608 1146.97 256.595 1147.04 244.594C1147.15 228.593 1121.24 216.1 1116.51 203.711C1115.32 200.614 1109.87 188.767 1117.66 174.986C1125.45 161.205 1111.02 160.042 1089.71 179.939C1085.97 183.43 1106.28 147.654 1126.44 156.482C1142.57 163.544 1148.43 179.866 1147.36 196.59C1143.87 189.905 1137.36 165.046 1127.28 175.761C1117.2 186.476 1132.21 206.577 1139.57 210.371C1151.71 218.553 1171.53 239.842 1153.68 259.538Z"
            fill="#B40AF0" />
        <path
            d="M1251.21 211.081C1356.57 109.552 1326.54 23.0683 1433.18 0L1493 423.16L227.438 602.067L203.621 433.586C203.621 433.586 198.613 398.161 245.505 391.532C329.623 379.641 342.915 413.631 509.749 422.282C676.584 430.933 651.559 356.292 717.518 286.526C783.477 216.759 896.938 277.627 957.57 290.871C996.173 299.303 1145.84 312.61 1251.21 211.081Z"
            fill="#B40AEF" fill-opacity="0.5" />
        <path
            d="M1086.13 310.557C1204.75 224.65 1187.11 134.68 1296 126.755L1296 554.755L17 554.755L17 384.347C17 384.347 17 348.517 64.3903 348.517C149.401 348.517 157.81 384.085 321.901 416.051C485.991 448.017 471.651 370.493 546.777 310.557C621.902 250.622 725.796 326.884 784.016 348.517C821.084 362.29 967.513 396.465 1086.13 310.557Z"
            fill="#B40AEF" />
    </g>
</svg>